<?xml version="1.0" encoding="UTF-8" standalone="no"?>
<!-- Created with Inkscape (http://www.inkscape.org/) -->

<svg
   xmlns:dc="http://purl.org/dc/elements/1.1/"
   xmlns:cc="http://creativecommons.org/ns#"
   xmlns:rdf="http://www.w3.org/1999/02/22-rdf-syntax-ns#"
   xmlns:svg="http://www.w3.org/2000/svg"
   xmlns="http://www.w3.org/2000/svg"
   xmlns:sodipodi="http://sodipodi.sourceforge.net/DTD/sodipodi-0.dtd"
   xmlns:inkscape="http://www.inkscape.org/namespaces/inkscape"
   width="1000"
   height="1000"
   viewBox="0 0 1000 1000"
   id="svg3356"
   version="1.1"
   inkscape:version="0.91 r13725"
   sodipodi:docname="wa02-grav-features.svg"
   inkscape:export-filename="D:\EasyPHP-Devserver\eds-www\prod\mkac\webentiel-com\s\lab_\_T\nounproject-assets\wa02-grav-features\wa02-grav-features.png"
   inkscape:export-xdpi="90"
   inkscape:export-ydpi="90">
  <defs
     id="defs3358" />
  <sodipodi:namedview
     id="base"
     pagecolor="#020202"
     bordercolor="#666666"
     borderopacity="1.0"
     inkscape:pageopacity="0"
     inkscape:pageshadow="2"
     inkscape:zoom="0.45254834"
     inkscape:cx="812.28891"
     inkscape:cy="311.1454"
     inkscape:document-units="px"
     inkscape:current-layer="g3537"
     showgrid="false"
     units="px"
     inkscape:window-width="1366"
     inkscape:window-height="745"
     inkscape:window-x="-8"
     inkscape:window-y="-8"
     inkscape:window-maximized="1"
     showguides="true"
     inkscape:guide-bbox="true"
     fit-margin-top="100"
     fit-margin-left="100"
     fit-margin-bottom="100"
     fit-margin-right="100">
    <sodipodi:guide
       position="1,899.44"
       orientation="0,1"
       id="guide3399"
       inkscape:label=""
       inkscape:color="rgb(0,0,255)" />
    <sodipodi:guide
       position="1,102"
       orientation="0,1"
       id="guide3401"
       inkscape:label=""
       inkscape:color="rgb(0,0,255)" />
    <sodipodi:guide
       position="100,1"
       orientation="1,0"
       id="guide3403"
       inkscape:label=""
       inkscape:color="rgb(0,0,255)" />
    <sodipodi:guide
       position="900,1"
       orientation="1,0"
       id="guide3420"
       inkscape:label=""
       inkscape:color="rgb(0,0,255)" />
    <sodipodi:guide
       position="200,1"
       orientation="1,0"
       id="guide3626"
       inkscape:label=""
       inkscape:color="rgb(0,0,255)" />
    <sodipodi:guide
       position="800,1"
       orientation="1,0"
       id="guide3628"
       inkscape:label=""
       inkscape:color="rgb(0,0,255)" />
    <sodipodi:guide
       position="1,800"
       orientation="0,1"
       id="guide3630"
       inkscape:label=""
       inkscape:color="rgb(0,0,255)" />
    <sodipodi:guide
       position="1,200"
       orientation="0,1"
       id="guide3632"
       inkscape:label=""
       inkscape:color="rgb(0,0,255)" />
  </sodipodi:namedview>
  <metadata
     id="metadata3361">
    <rdf:RDF>
      <cc:Work
         rdf:about="">
        <dc:format>image/svg+xml</dc:format>
        <dc:type
           rdf:resource="http://purl.org/dc/dcmitype/StillImage" />
        <dc:title></dc:title>
      </cc:Work>
    </rdf:RDF>
  </metadata>
  <g
     inkscape:label="Calque 1"
     inkscape:groupmode="layer"
     id="layer1"
     transform="translate(8.5971604e-7,-52.362228)">
    <g
       id="g3561"
       transform="matrix(7.9999818,0,0,8.5305389,100.00182,152.3622)"
       style="fill:#ffffff">
      <g
         id="g3537"
         style="fill:#ffffff">
        <g
           id="g3614"
           transform="matrix(0.74979156,0,0,0.69682754,12.499971,14.089869)">
          <path
             style="fill:#ffffff"
             inkscape:connector-curvature="0"
             d="m 45.172,17.244 49.344,0 c 3.027,0 5.484,-2.453 5.484,-5.483 0,-3.03 -2.458,-5.484 -5.484,-5.484 l -49.344,0 c -3.029,0 -5.483,2.454 -5.483,5.484 0,3.031 2.456,5.483 5.483,5.483 z"
             id="path3539" />
          <path
             style="fill:#ffffff"
             inkscape:connector-curvature="0"
             d="m 94.516,33.78261 -49.344,0 c -3.029,0 -5.483,2.453 -5.483,5.482 0,3.032 2.456,5.484 5.483,5.484 l 49.344,0 c 3.027,0 5.484,-2.453 5.484,-5.484 0,-3.03 -2.457,-5.482 -5.484,-5.482 z"
             id="path3541" />
          <path
             style="fill:#ffffff"
             inkscape:connector-curvature="0"
             d="m 94.516,56.831634 -49.344,0 c -3.029,0 -5.483,2.451 -5.483,5.484 0,3.03 2.456,5.481 5.483,5.481 l 49.344,0 c 3.027,0 5.484,-2.451 5.484,-5.481 0,-3.033 -2.457,-5.484 -5.484,-5.484 z"
             id="path3543" />
          <path
             style="fill:#ffffff"
             inkscape:connector-curvature="0"
             d="m 22.718,7.588 -6.652,0 -2.053,-6.324 C 13.768,0.509 13.068,0 12.275,0 11.483,0 10.783,0.509 10.537,1.264 l -2.06,6.324 -6.647,0 c -0.792,0 -1.495,0.511 -1.742,1.264 -0.242,0.754 0.025,1.578 0.664,2.042 l 5.384,3.911 -2.056,6.324 c -0.242,0.75 0.022,1.578 0.664,2.042 0.639,0.466 1.507,0.466 2.15,0 l 5.382,-3.91 5.383,3.91 c 0.321,0.235 0.699,0.35 1.074,0.35 0.374,0 0.753,-0.115 1.074,-0.35 0.643,-0.464 0.907,-1.292 0.665,-2.042 l -2.057,-6.324 5.384,-3.911 C 24.437,10.43 24.704,9.605 24.463,8.852 24.215,8.099 23.512,7.588 22.718,7.588 Z"
             id="path3545" />
          <path
             style="fill:#ffffff"
             inkscape:connector-curvature="0"
             d="m 18.403,31.30861 -12.256,0 c -1.01,0 -1.828,0.817 -1.828,1.828 l 0,12.257 c 0,1.011 0.818,1.826 1.828,1.826 l 12.256,0 c 1.011,0 1.827,-0.815 1.827,-1.826 l 0,-12.257 c 0,-1.01 -0.816,-1.828 -1.827,-1.828 z"
             id="path3547" />
          <path
             style="fill:#ffffff"
             inkscape:connector-curvature="0"
             d="m 18.403,54.358634 -12.256,0 c -1.01,0 -1.828,0.817 -1.828,1.827 l 0,12.257 c 0,1.013 0.818,1.829 1.828,1.829 l 12.256,0 c 1.011,0 1.827,-0.816 1.827,-1.829 l 0,-12.257 c 0,-1.01 -0.816,-1.827 -1.827,-1.827 z"
             id="path3549" />
          <path
             style="fill:#ffffff"
             inkscape:connector-curvature="0"
             d="m 94.543803,80.062094 -49.34392,0 c -3.028996,0 -5.483,2.451 -5.483,5.484 0,3.03 2.456004,5.481 5.483,5.481 l 49.34392,0 c 3.026996,0 5.483997,-2.451 5.483997,-5.481 0,-3.033 -2.457001,-5.484 -5.483997,-5.484 z"
             id="path3543-7" />
          <path
             style="fill:#ffffff"
             inkscape:connector-curvature="0"
             d="m 18.430882,77.589094 -12.2559974,0 c -1.01,0 -1.828,0.817 -1.828,1.827 l 0,12.257 c 0,1.013001 0.818,1.828996 1.828,1.828996 l 12.2559974,0 c 1.011001,0 1.827,-0.815995 1.827,-1.828996 l 0,-12.257 c 0,-1.01 -0.815999,-1.827 -1.827,-1.827 z"
             id="path3549-8" />
        </g>
        <rect
           style="fill:none"
           id="rect3624"
           width="100.00023"
           height="93.780708"
           x="-0.00022760798"
           y="3.416623e-006" />
      </g>
    </g>
  </g>
</svg>
